<svg id="Black" xmlns="http://www.w3.org/2000/svg" viewBox="0 0 886 157"><defs><style>.cls-1{fill:none;}.cls-2{fill:#231f20;}</style></defs><title>NinjaNow Logo Black RGBArtboard 1</title><path class="cls-1" d="M654.56,46c-14.12,0-23.2,13.83-23.2,26.51,0,10.66,6.48,19,18.59,19,14.12,0,23.19-13.83,23.19-26.51C673.14,54.39,666.66,46,654.56,46Z"/><path class="cls-1" d="M423.9,96.18c0,4,2.3,6.19,5.33,6.19,5.18,0,10.8-5.33,12.68-12.67l.86-3.32a22.16,22.16,0,0,0-6-.86C428.51,85.52,423.9,89.41,423.9,96.18Z"/><polygon class="cls-2" points="229.4 40.56 208.36 119.23 241.07 119.23 262.11 40.56 229.4 40.56"/><polygon class="cls-2" points="269.89 14.05 236.03 14.05 230.41 34.94 264.27 34.94 269.89 14.05"/><path class="cls-2" d="M302.45,119.23h32.7L346.68,76a50.47,50.47,0,0,0,1.87-13.26c0-14.7-8.07-24.06-22.47-24.06-9.8,0-18.3,5.33-23.49,11.67l2.59-9.8h-32.7l-21,78.67h32.71L294.66,80c2.31-8.5,5.77-12.82,12.25-12.82,4.76,0,6.92,2.74,6.92,6.91A23.27,23.27,0,0,1,313,80Z"/><polygon class="cls-2" points="406.04 14.05 372.18 14.05 366.56 34.94 400.42 34.94 406.04 14.05"/><path class="cls-2" d="M365.55,40.56l-18.73,70.32c-2.6,9.79-4.62,12-11.1,12h-1.44L327.91,145h12c21.18,0,32.27-8,38.33-29.79l20-74.64Z"/><path class="cls-2" d="M478.94,65.06c0-15.71-12.11-25.65-38.19-25.65-11.38,0-23.91,1.58-32.42,4.18l4.09,21a102.76,102.76,0,0,1,21.71-2.25c8.21,0,12.1,2.74,12.1,7.64a15.74,15.74,0,0,1-.58,3.89l-.29.86a63.67,63.67,0,0,0-17.86-2.59c-22.19,0-35.16,10.8-35.16,27.37,0,13.55,8.93,21.47,21,21.47,9.07,0,15-3.74,22-9.65l-2.16,7.92H466L477.5,76A44.47,44.47,0,0,0,478.94,65.06Zm-37,24.64c-1.88,7.34-7.5,12.67-12.68,12.67-3,0-5.33-2.16-5.33-6.19,0-6.77,4.61-10.66,12.82-10.66a22.16,22.16,0,0,1,6,.86Z"/><polygon class="cls-2" points="569.7 18.37 556.73 66.5 533.83 18.37 502.27 18.37 475.18 119.23 508.61 119.23 522.15 69.09 546.07 119.23 576.04 119.23 603.13 18.37 569.7 18.37"/><path class="cls-2" d="M656.86,16.36c-33.86,0-59.36,28-59.36,59.22,0,25.79,20.46,45.67,50.14,45.67C681.5,121.25,707,93.3,707,62,707,36.24,686.54,16.36,656.86,16.36ZM650,91.57c-12.11,0-18.59-8.36-18.59-19,0-12.68,9.08-26.51,23.2-26.51,12.1,0,18.58,8.35,18.58,19C673.14,77.74,664.07,91.57,650,91.57Z"/><polygon class="cls-2" points="838.55 18.37 811.32 66.79 808.01 18.09 778.9 18.09 749.65 66.79 748.36 18.37 713.78 18.37 719.54 119.95 748.93 119.95 780.06 69.81 784.38 119.95 813.77 119.95 874 18.37 838.55 18.37"/><path class="cls-2" d="M191.23,18.37l-13,48.13L155.35,18.37H116.56a81.42,81.42,0,0,1,2.4,18c0,.65.06,1.3.06,2a80.25,80.25,0,0,1-12,42.35c-14.32,23.21-25.87,35.16-52.55,38.56h75.62l13.55-50.14,23.92,50.14h30L224.66,18.37Z"/><path class="cls-2" d="M111.43,18.88A80.44,80.44,0,0,1,114,38.21a88.42,88.42,0,0,1-1.77,19.27A81.85,81.85,0,0,1,96,92.23a87.54,87.54,0,0,1-6.38,7.22,52.66,52.66,0,0,1-7.27,6.37,62.21,62.21,0,0,1-17.21,8.5,94.46,94.46,0,0,1-18.69,4,109.17,109.17,0,0,1-19,.58,109.38,109.38,0,0,0,19-1.16,94.73,94.73,0,0,0,18.38-4.51,61.07,61.07,0,0,0,16.55-8.81,55,55,0,0,0,6.87-6.36,86.54,86.54,0,0,0,6.09-7.16,79.38,79.38,0,0,0,15-34A86.17,86.17,0,0,0,110.7,38.3,77.33,77.33,0,0,0,107.92,20l0-.11a1.84,1.84,0,1,1,3.53-1Z"/><path class="cls-2" d="M106.14,34.43a56.94,56.94,0,0,1,.58,9.19,76.83,76.83,0,0,1-.61,9A77.33,77.33,0,0,1,101.83,70,75.6,75.6,0,0,1,82.12,99.33c-8.93,7.93-20.14,12.7-31.58,15a105.27,105.27,0,0,1-34.82,1.15,104.77,104.77,0,0,0,34.56-2.31c11.21-2.69,22-7.77,30.23-15.64A65.58,65.58,0,0,0,91.06,84.18a71.23,71.23,0,0,0,7.07-15.46,73.09,73.09,0,0,0,3.28-16.6,69.83,69.83,0,0,0,.19-8.43,53.1,53.1,0,0,0-.87-8.18l0-.12a2.76,2.76,0,0,1,5.41-1.09A.59.59,0,0,1,106.14,34.43Z"/><path class="cls-2" d="M96.57,48.51a63.73,63.73,0,0,1-.87,13.23,67.14,67.14,0,0,1-3.39,12.69A53.84,53.84,0,0,1,77.71,96,67.17,67.17,0,0,1,55.44,109a63.57,63.57,0,0,1-25.39,3.58,63.15,63.15,0,0,0,25.08-4.4A65.71,65.71,0,0,0,76.52,94.66,51.51,51.51,0,0,0,89.75,73.52a64.41,64.41,0,0,0,3.16-24.67v-.12a1.84,1.84,0,1,1,3.67-.27Z"/></svg>